Love Belongs to Everyone (2006)

Plot: Shy, gentle half-wit Dennis, whose only obsession is train-spotting, is released early on account of model behavior after a rape sentence. His parents who run a modest barbershop, skeptic André and Rita, desperately try to keep him out of girl trouble, but his victim's sister Barbara starts a hate campaign. After another girl reports abuse, Dennis is jailed and beaten black and blue daily, why his ward jailer enjoys the 'show'. Barbara's boyfriend, lawyer Thomas Verelst, accepts to help 'pro deo' (no coast) plead that Dennis belongs in a mental institution. 

Cast:
Els Dottermans ... Rita  
Matthias Schoenaerts ... Dennis  
Veerle Baetens ... Barbara  
Damiaan De Schrijver ... Andre  
Tom Van Dyck ... Thomas  
June Voeten ... Jasmijn  
Reinhilde Decleir ... Arlette  
Francine de Bolle ... Jenny  
Patrick De Neve ... Jeroen  
Greta Van Langhendonck ... Rita's Mum  
Maaike Neuville ... Delphine

Details
Original title: Dennis van Rita
Genre: Drama
Runtime: 80 min
Country: Belgium
Language: Flemish
Release Date: 8 February 2006 (Belgium)

Directed by
Hilde Van Mieghem

Writing credits
Hugo Van Laere

IMDb: http://www.imdb.com/title/tt0789770/

--------------------------------------------------------------------------------

MediaInfo:

General
Format                                   : AVI
Format/Info                              : Audio Video Interleave
File size                                : 699 MiB
Duration                                 : 1h 20mn
Overall bit rate mode                    : Variable
Overall bit rate                         : 1 210 Kbps
Writing application                      : Nandub v1.0rc2
Writing library                          : Nandub build 1852/release

Video
ID                                       : 0
Format                                   : MPEG-4 Visual
Format profile                           : Advanced Simple@L5
Format settings, BVOP                    : No
Format settings, QPel                    : No
Format settings, GMC                     : No warppoints
Format settings, Matrix                  : Default (H.263)
Codec ID                                 : XVID
Codec ID/Hint                            : XviD
Duration                                 : 1h 20mn
Bit rate                                 : 1 081 Kbps
Width                                    : 576 pixels
Height                                   : 320 pixels
Display aspect ratio                     : 16:9
Frame rate                               : 25.000 fps
Color space                              : YUV
Chroma subsampling                       : 4:2:0
Bit depth                                : 8 bits
Scan type                                : Progressive
Compression mode                         : Lossy
Bits/(Pixel*Frame)                       : 0.235
Stream size                              : 625 MiB (89%)
Writing library                          : XviD 1.0.2 (UTC 2004-08-29)

Audio
ID                                       : 1
Format                                   : MPEG Audio
Format version                           : Version 1
Format profile                           : Layer 3
Mode                                     : Joint stereo
Mode extension                           : MS Stereo
Codec ID                                 : 55
Codec ID/Hint                            : MP3
Duration                                 : 1h 20mn
Bit rate mode                            : Variable
Bit rate                                 : 116 Kbps
Nominal bit rate                         : 128 Kbps
Channel(s)                               : 2 channels
Sampling rate                            : 48.0 KHz
Compression mode                         : Lossy
Stream size                              : 67.0 MiB (10%)
Alignment                                : Aligned on interleaves
Interleave, duration                     : 24 ms (0.60 video frame)
Interleave, preload duration             : 152 ms
Writing library                          : LAME3.90.
Encoding settings                        : -m j -V 0 -q 5 -lowpass 15.3 --abr 128

--------------------------------------------------------------------------------

Screenshots: 
http://i.imgur.com/9Tzh4.jpg
 
http://i.imgur.com/JQchp.jpg
 
http://i.imgur.com/qujRM.jpg
 
http://i.imgur.com/4G9NR.jpg
 
http://i.imgur.com/04NKa.jpg
 
http://i.imgur.com/yiAdQ.jpg
 
http://i.imgur.com/9Z0jf.jpg
 
http://i.imgur.com/nvDay.jpg